<?xml version="1.0" encoding="UTF-8"?>
<svg version="1.1" xmlns="http://www.w3.org/2000/svg" width="250" height="250">
<path d="M0 0 C82.5 0 165 0 250 0 C250 82.5 250 165 250 250 C167.5 250 85 250 0 250 C0 167.5 0 85 0 0 Z " fill="#DD0000" transform="translate(0,0)"/>
<path d="M0 0 C1.50626953 0.41765625 1.50626953 0.41765625 3.04296875 0.84375 C27.57304795 8.36155498 46.14557248 24.32079441 58.9453125 46.34765625 C70.0238735 67.23386108 74.00263752 92.12305608 67 115 C59.03246594 140.73951404 44.07735976 161.07546 20.16796875 174.4375 C-3.54518941 186.13326235 -29.12326947 187.92996745 -54.328125 180.3125 C-78.99349309 171.4959429 -98.39530589 153.84723178 -109.65625 130.16796875 C-119.92384451 105.96151774 -121.51198723 80.30010717 -111.62182617 55.66577148 C-106.46963776 43.60552423 -99.18824592 33.34241112 -90 24 C-89.25234375 23.23945312 -88.5046875 22.47890625 -87.734375 21.6953125 C-64.79950567 -0.25229425 -30.44778469 -8.45974377 0 0 Z " fill="#FCFBFB" transform="translate(149,34)"/>
<path d="M0 0 C3.01409306 1.44304314 5.10472016 2.86591868 7.453125 5.2578125 C8.071875 5.88300781 8.690625 6.50820313 9.328125 7.15234375 C9.96234375 7.80332031 10.5965625 8.45429687 11.25 9.125 C12.22453125 10.11306641 12.22453125 10.11306641 13.21875 11.12109375 C14.81711727 12.74296643 16.41061897 14.3693281 18 16 C16.67197431 18.95854541 15.2410159 20.98948709 12.91137695 23.23632812 C12.28765701 23.84375854 11.66393707 24.45118896 11.02131653 25.07702637 C10.35041489 25.72192017 9.67951324 26.36681396 8.98828125 27.03125 C7.57705427 28.4123317 6.1662598 29.79385546 4.75585938 31.17578125 C2.52873403 33.34696353 0.29796128 35.51402359 -1.94067383 37.67333984 C-4.10040935 39.76080775 -6.24441341 41.86341872 -8.38671875 43.96875 C-9.06369308 44.6136438 -9.74066742 45.2585376 -10.43815613 45.92297363 C-11.35955132 46.83411926 -11.35955132 46.83411926 -12.29956055 47.76367188 C-12.84646042 48.29343628 -13.39336029 48.82320068 -13.95683289 49.36901855 C-15.22660155 50.9754231 -15.22660155 50.9754231 -14.75619507 53.09356689 C-13.82639272 55.43767896 -12.644951 56.69680443 -10.83984375 58.453125 C-10.21142578 59.071875 -9.58300781 59.690625 -8.93554688 60.328125 C-8.27619141 60.96234375 -7.61683594 61.5965625 -6.9375 62.25 C-6.27427734 62.8996875 -5.61105469 63.549375 -4.92773438 64.21875 C-3.29170683 65.8194676 -1.64909088 67.41276193 0 69 C2.99943905 67.65427113 5.08076179 66.16462899 7.39160156 63.83544922 C8.0319635 63.19493622 8.67232544 62.55442322 9.33209229 61.89450073 C10.01140808 61.20486237 10.69072388 60.515224 11.390625 59.8046875 C12.09523865 59.09724396 12.79985229 58.38980042 13.52581787 57.66091919 C15.7719539 55.40360138 18.01103009 53.13942367 20.25 50.875 C21.77297717 49.34199047 23.29640939 47.80943285 24.8203125 46.27734375 C28.55216815 42.52345427 32.27825351 38.76391086 36 35 C42.28513004 40.18760582 48.00311158 45.87427266 53.74609375 51.6484375 C54.76720048 52.67141306 55.788531 53.69416528 56.81007385 54.71670532 C59.47711353 57.38753361 62.14113436 60.06135282 64.80450439 62.73583984 C67.5312385 65.47286736 70.26086305 68.20700901 72.99023438 70.94140625 C78.32963089 76.29147548 83.66583652 81.64471273 89 87 C87.55695686 90.01409306 86.13408132 92.10472016 83.7421875 94.453125 C83.11699219 95.071875 82.49179688 95.690625 81.84765625 96.328125 C80.87119141 97.27945313 80.87119141 97.27945313 79.875 98.25 C79.21628906 98.8996875 78.55757812 99.549375 77.87890625 100.21875 C76.25703357 101.81711727 74.6306719 103.41061897 73 105 C70.04145459 103.67197431 68.01051291 102.2410159 65.76367188 99.91137695 C65.15624146 99.28765701 64.54881104 98.66393707 63.92297363 98.02131653 C62.95563293 97.01496407 62.95563293 97.01496407 61.96875 95.98828125 C60.5876683 94.57705427 59.20614454 93.1662598 57.82421875 91.75585938 C55.65303647 89.52873403 53.48597641 87.29796128 51.32666016 85.05932617 C49.23919225 82.89959065 47.13658128 80.75558659 45.03125 78.61328125 C44.3863562 77.93630692 43.7414624 77.25933258 43.07702637 76.56184387 C42.46959595 75.94758041 41.86216553 75.33331696 41.23632812 74.70043945 C40.70656372 74.15353958 40.17679932 73.60663971 39.63098145 73.04316711 C38.0245769 71.77339845 38.0245769 71.77339845 35.90643311 72.24380493 C33.56232104 73.17360728 32.30319557 74.355049 30.546875 76.16015625 C29.928125 76.78857422 29.309375 77.41699219 28.671875 78.06445312 C28.03765625 78.72380859 27.4034375 79.38316406 26.75 80.0625 C26.1003125 80.72572266 25.450625 81.38894531 24.78125 82.07226562 C23.1805324 83.70829317 21.58723807 85.35090912 20 87 C21.34572887 89.99943905 22.83537101 92.08076179 25.16455078 94.39160156 C25.80506378 95.0319635 26.44557678 95.67232544 27.10549927 96.33209229 C27.79513763 97.01140808 28.484776 97.69072388 29.1953125 98.390625 C30.25647781 99.44754547 30.25647781 99.44754547 31.33908081 100.52581787 C33.59639862 102.7719539 35.86057633 105.01103009 38.125 107.25 C39.65800953 108.77297717 41.19056715 110.29640939 42.72265625 111.8203125 C46.47654573 115.55216815 50.23608914 119.27825351 54 123 C48.81239418 129.28513004 43.12572734 135.00311158 37.3515625 140.74609375 C36.32858694 141.76720048 35.30583472 142.788531 34.28329468 143.81007385 C31.61246639 146.47711353 28.93864718 149.14113436 26.26416016 151.80450439 C23.52713264 154.5312385 20.79299099 157.26086305 18.05859375 159.99023438 C12.70852452 165.32963089 7.35528727 170.66583652 2 176 C-1.01409306 174.55695686 -3.10472016 173.13408132 -5.453125 170.7421875 C-6.071875 170.11699219 -6.690625 169.49179688 -7.328125 168.84765625 C-8.27945313 167.87119141 -8.27945313 167.87119141 -9.25 166.875 C-9.8996875 166.21628906 -10.549375 165.55757812 -11.21875 164.87890625 C-12.81711727 163.25703357 -14.41061897 161.6306719 -16 160 C-14.67197431 157.04145459 -13.2410159 155.01051291 -10.91137695 152.76367188 C-10.28765701 152.15624146 -9.66393707 151.54881104 -9.02131653 150.92297363 C-8.01496407 149.95563293 -8.01496407 149.95563293 -6.98828125 148.96875 C-5.57705427 147.5876683 -4.1662598 146.20614454 -2.75585938 144.82421875 C-0.52873403 142.65303647 1.70203872 140.48597641 3.94067383 138.32666016 C6.10040935 136.23919225 8.24441341 134.13658128 10.38671875 132.03125 C11.06369308 131.3863562 11.74066742 130.7414624 12.43815613 130.07702637 C13.05241959 129.46959595 13.66668304 128.86216553 14.29956055 128.23632812 C14.84646042 127.70656372 15.39336029 127.17679932 15.95683289 126.63098145 C17.22660155 125.0245769 17.22660155 125.0245769 16.75619507 122.90643311 C15.82639272 120.56232104 14.644951 119.30319557 12.83984375 117.546875 C12.21142578 116.928125 11.58300781 116.309375 10.93554688 115.671875 C10.27619141 115.03765625 9.61683594 114.4034375 8.9375 113.75 C8.27427734 113.1003125 7.61105469 112.450625 6.92773438 111.78125 C5.29170683 110.1805324 3.64909088 108.58723807 2 107 C-0.99943905 108.34572887 -3.08076179 109.83537101 -5.39160156 112.16455078 C-6.0319635 112.80506378 -6.67232544 113.44557678 -7.33209229 114.10549927 C-8.01140808 114.79513763 -8.69072388 115.484776 -9.390625 116.1953125 C-10.44754547 117.25647781 -10.44754547 117.25647781 -11.52581787 118.33908081 C-13.7719539 120.59639862 -16.01103009 122.86057633 -18.25 125.125 C-19.77297717 126.65800953 -21.29640939 128.19056715 -22.8203125 129.72265625 C-26.55216815 133.47654573 -30.27825351 137.23608914 -34 141 C-40.28513004 135.81239418 -46.00311158 130.12572734 -51.74609375 124.3515625 C-52.76720048 123.32858694 -53.788531 122.30583472 -54.81007385 121.28329468 C-57.47711353 118.61246639 -60.14113436 115.93864718 -62.80450439 113.26416016 C-65.5312385 110.52713264 -68.26086305 107.79299099 -70.99023438 105.05859375 C-76.32963089 99.70852452 -81.66583652 94.35528727 -87 89 C-85.55695686 85.98590694 -84.13408132 83.89527984 -81.7421875 81.546875 C-81.11699219 80.928125 -80.49179688 80.309375 -79.84765625 79.671875 C-79.19667969 79.03765625 -78.54570313 78.4034375 -77.875 77.75 C-76.88693359 76.77546875 -76.88693359 76.77546875 -75.87890625 75.78125 C-74.25703357 74.18288273 -72.6306719 72.58938103 -71 71 C-68.04145459 72.32802569 -66.01051291 73.7589841 -63.76367188 76.08862305 C-63.15624146 76.71234299 -62.54881104 77.33606293 -61.92297363 77.97868347 C-61.27807983 78.64958511 -60.63318604 79.32048676 -59.96875 80.01171875 C-58.5876683 81.42294573 -57.20614454 82.8337402 -55.82421875 84.24414062 C-53.65303647 86.47126597 -51.48597641 88.70203872 -49.32666016 90.94067383 C-47.23919225 93.10040935 -45.13658128 95.24441341 -43.03125 97.38671875 C-42.3863562 98.06369308 -41.7414624 98.74066742 -41.07702637 99.43815613 C-40.16588074 100.35955132 -40.16588074 100.35955132 -39.23632812 101.29956055 C-38.70656372 101.84646042 -38.17679932 102.39336029 -37.63098145 102.95683289 C-36.0245769 104.22660155 -36.0245769 104.22660155 -33.90643311 103.75619507 C-31.56232104 102.82639272 -30.30319557 101.644951 -28.546875 99.83984375 C-27.928125 99.21142578 -27.309375 98.58300781 -26.671875 97.93554688 C-26.03765625 97.27619141 -25.4034375 96.61683594 -24.75 95.9375 C-24.1003125 95.27427734 -23.450625 94.61105469 -22.78125 93.92773438 C-21.1805324 92.29170683 -19.58723807 90.64909088 -18 89 C-19.34572887 86.00056095 -20.83537101 83.91923821 -23.16455078 81.60839844 C-23.80506378 80.9680365 -24.44557678 80.32767456 -25.10549927 79.66790771 C-25.79513763 78.98859192 -26.484776 78.30927612 -27.1953125 77.609375 C-27.90275604 76.90476135 -28.61019958 76.20014771 -29.33908081 75.47418213 C-31.59639862 73.2280461 -33.86057633 70.98896991 -36.125 68.75 C-37.65800953 67.22702283 -39.19056715 65.70359061 -40.72265625 64.1796875 C-44.47654573 60.44783185 -48.23608914 56.72174649 -52 53 C-46.81239418 46.71486996 -41.12572734 40.99688842 -35.3515625 35.25390625 C-34.32858694 34.23279952 -33.30583472 33.211469 -32.28329468 32.18992615 C-29.61246639 29.52288647 -26.93864718 26.85886564 -24.26416016 24.19549561 C-21.52713264 21.4687615 -18.79299099 18.73913695 -16.05859375 16.00976562 C-10.70852452 10.67036911 -5.35528727 5.33416348 0 0 Z " fill="#010101" transform="translate(124,37)"/>
</svg>
